Ruwudu-Regular.ufo
<glyph name="D" format="2">
  <advance width="699"/>
  <unicode hex="0044"/>
  <anchor x="345" y="659" name="top"/>
  <outline>
    <contour>
      <point x="156" y="656" type="curve" smooth="yes"/>
      <point x="117" y="656"/>
      <point x="92" y="657"/>
      <point x="33" y="660" type="curve"/>
      <point x="23" y="629" type="line"/>
      <point x="111" y="608" type="line"/>
      <point x="115" y="539"/>
      <point x="116" y="424"/>
      <point x="116" y="343" type="curve" smooth="yes"/>
      <point x="116" y="242"/>
      <point x="114" y="171"/>
      <point x="111" y="51" type="curve"/>
      <point x="23" y="30" type="line"/>
      <point x="33" y="0" type="line"/>
      <point x="74" y="1"/>
      <point x="120" y="3"/>
      <point x="155" y="3" type="curve" smooth="yes"/>
      <point x="179" y="3"/>
      <point x="287" y="-4"/>
      <point x="312" y="-4" type="curve" smooth="yes"/>
      <point x="495" y="-4"/>
      <point x="649" y="99"/>
      <point x="649" y="334" type="curve" smooth="yes"/>
      <point x="649" y="536"/>
      <point x="514" y="660"/>
      <point x="329" y="660" type="curve" smooth="yes"/>
      <point x="258" y="660"/>
      <point x="203" y="656"/>
    </contour>
    <contour>
      <point x="202" y="342" type="curve" smooth="yes"/>
      <point x="202" y="417"/>
      <point x="203" y="465"/>
      <point x="204" y="595" type="curve"/>
      <point x="243" y="606"/>
      <point x="260" y="611"/>
      <point x="311" y="611" type="curve" smooth="yes"/>
      <point x="467" y="611"/>
      <point x="549" y="458"/>
      <point x="549" y="326" type="curve" smooth="yes"/>
      <point x="549" y="213"/>
      <point x="498" y="92"/>
      <point x="388" y="51" type="curve"/>
      <point x="308" y="48"/>
      <point x="256" y="57"/>
      <point x="204" y="72" type="curve"/>
      <point x="202" y="151"/>
      <point x="202" y="257"/>
    </contour>
  </outline>
</glyph>
<glyph name="logicalnot" format="2">
  <advance width="521"/>
  <unicode hex="00AC"/>
  <outline>
    <contour>
      <point x="481" y="451" type="line"/>
      <point x="331" y="448"/>
      <point x="190" y="448"/>
      <point x="40" y="451" type="curve"/>
      <point x="40" y="388" type="line"/>
      <point x="190" y="391"/>
      <point x="328" y="391"/>
      <point x="478" y="388" type="curve"/>
    </contour>
    <contour>
      <point x="418" y="445" type="line"/>
      <point x="421" y="305"/>
      <point x="421" y="290"/>
      <point x="418" y="150" type="curve"/>
      <point x="481" y="150" type="line"/>
      <point x="478" y="290"/>
      <point x="478" y="311"/>
      <point x="481" y="451" type="curve"/>
    </contour>
  </outline>
</glyph>
<glyph name="multiply" format="2">
  <advance width="521"/>
  <unicode hex="00D7"/>
  <outline>
    <contour>
      <point x="408" y="499" type="line"/>
      <point x="310" y="397"/>
      <point x="177" y="264"/>
      <point x="75" y="166" type="curve"/>
      <point x="119" y="122" type="line"/>
      <point x="217" y="224"/>
      <point x="350" y="357"/>
      <point x="452" y="455" type="curve"/>
    </contour>
    <contour>
      <point x="452" y="166" type="line"/>
      <point x="350" y="264"/>
      <point x="217" y="397"/>
      <point x="119" y="499" type="curve"/>
      <point x="75" y="455" type="line"/>
      <point x="177" y="357"/>
      <point x="310" y="224"/>
      <point x="408" y="122" type="curve"/>
    </contour>
  </outline>
</glyph>
<glyph name="divide" format="2">
  <advance width="521"/>
  <unicode hex="00F7"/>
  <outline>
    <contour>
      <point x="516" y="362" type="line"/>
      <point x="366" y="358"/>
      <point x="165" y="358"/>
      <point x="15" y="362" type="curve"/>
      <point x="15" y="299" type="line"/>
      <point x="165" y="303"/>
      <point x="366" y="303"/>
      <point x="516" y="299" type="curve"/>
    </contour>
    <contour>
      <point x="266" y="441" type="curve" smooth="yes"/>
      <point x="292" y="441"/>
      <point x="313" y="462"/>
      <point x="313" y="489" type="curve" smooth="yes"/>
      <point x="313" y="515"/>
      <point x="292" y="536"/>
      <point x="266" y="536" type="curve" smooth="yes"/>
      <point x="239" y="536"/>
      <point x="218" y="515"/>
      <point x="218" y="489" type="curve" smooth="yes"/>
      <point x="218" y="462"/>
      <point x="239" y="441"/>
    </contour>
    <contour>
      <point x="266" y="125" type="curve" smooth="yes"/>
      <point x="292" y="125"/>
      <point x="313" y="146"/>
      <point x="313" y="173" type="curve" smooth="yes"/>
      <point x="313" y="199"/>
      <point x="292" y="220"/>
      <point x="266" y="220" type="curve" smooth="yes"/>
      <point x="239" y="220"/>
      <point x="218" y="199"/>
      <point x="218" y="173" type="curve" smooth="yes"/>
      <point x="218" y="146"/>
      <point x="239" y="125"/>
    </contour>
  </outline>
</glyph>
<glyph name="caron" format="2">
  <advance width="300"/>
  <unicode hex="02C7"/>
  <outline>
    <contour>
      <point x="174" y="477" type="line"/>
      <point x="218" y="529"/>
      <point x="262" y="580"/>
      <point x="312" y="639" type="curve"/>
      <point x="284" y="667" type="line"/>
      <point x="226" y="623"/>
      <point x="178" y="586"/>
      <point x="131" y="553" type="curve"/>
      <point x="98" y="581"/>
      <point x="61" y="623"/>
      <point x="20" y="667" type="curve"/>
      <point x="-7" y="642" type="line"/>
      <point x="44" y="584"/>
      <point x="86" y="534"/>
      <point x="135" y="477" type="curve"/>
    </contour>
  </outline>
</glyph>
<glyph name="hamza-ar" format="2">
  <advance width="199"/>
  <unicode hex="0621"/>
  <anchor x="99" y="-33" name="bottom"/>
  <anchor x="100" y="241" name="top"/>
  <outline>
    <contour>
      <point x="11" y="1" type="curve"/>
      <point x="205" y="1" type="line"/>
      <point x="205" y="15"/>
      <point x="204" y="48"/>
      <point x="197" y="48" type="curve" smooth="yes"/>
      <point x="70" y="48" type="line"/>
      <point x="65" y="48"/>
      <point x="62" y="53"/>
      <point x="62" y="60" type="curve" smooth="yes"/>
      <point x="62" y="69"/>
      <point x="67" y="81"/>
      <point x="75" y="81" type="curve"/>
      <point x="205" y="81" type="line"/>
      <point x="205" y="95"/>
      <point x="204" y="129"/>
      <point x="197" y="129" type="curve" smooth="yes"/>
      <point x="67" y="129" type="line"/>
      <point x="64" y="129"/>
      <point x="63" y="132"/>
      <point x="63" y="137" type="curve" smooth="yes"/>
      <point x="63" y="147"/>
      <point x="69" y="162"/>
      <point x="78" y="162" type="curve"/>
      <point x="205" y="162" type="line"/>
      <point x="205" y="175"/>
      <point x="204" y="209"/>
      <point x="197" y="209" type="curve" smooth="yes"/>
      <point x="21" y="209" type="line" smooth="yes"/>
      <point x="-7" y="209"/>
      <point x="-14" y="193"/>
      <point x="-14" y="173" type="curve" smooth="yes"/>
      <point x="-14" y="153"/>
      <point x="-7" y="127"/>
      <point x="-7" y="107" type="curve"/>
      <point x="-7" y="78"/>
      <point x="-13" y="50"/>
      <point x="-13" y="30" type="curve" smooth="yes"/>
      <point x="-13" y="13"/>
      <point x="-8" y="1"/>
    </contour>
  </outline>
</glyph>
<glyph name="alefHamzabelow-ar" format="2">
  <advance width="225"/>
  <unicode hex="0625"/>
  <anchor x="99" y="-56" name="bottom"/>
  <anchor x="94" y="600" name="top"/>
  <outline>
    <contour>
      <point x="231" y="145" type="curve" smooth="yes"/>
      <point x="142" y="145" type="line" smooth="yes"/>
      <point x="136" y="145"/>
      <point x="135" y="146"/>
      <point x="135" y="181" type="curve" smooth="yes"/>
      <point x="135" y="281"/>
      <point x="138" y="470"/>
      <point x="137" y="567" type="curve"/>
      <point x="132" y="574"/>
      <point x="128" y="578"/>
      <point x="125" y="578" type="curve" smooth="yes"/>
      <point x="109" y="578"/>
      <point x="84" y="572"/>
      <point x="55" y="554" type="curve"/>
      <point x="90" y="248"/>
      <point x="78" y="-1"/>
      <point x="89" y="-1" type="curve" smooth="yes"/>
      <point x="236" y="0" type="line"/>
      <point x="236" y="9"/>
      <point x="235" y="34"/>
      <point x="231" y="34" type="curve" smooth="yes"/>
      <point x="139" y="34" type="line" smooth="yes"/>
      <point x="132" y="34"/>
      <point x="136" y="56"/>
      <point x="142" y="56" type="curve" smooth="yes"/>
      <point x="236" y="56" type="line"/>
      <point x="236" y="66"/>
      <point x="235" y="89"/>
      <point x="231" y="89" type="curve" smooth="yes"/>
      <point x="138" y="89" type="line" smooth="yes"/>
      <point x="133" y="89"/>
      <point x="136" y="112"/>
      <point x="142" y="112" type="curve" smooth="yes"/>
      <point x="236" y="112" type="line"/>
      <point x="236" y="121"/>
      <point x="235" y="145"/>
    </contour>
  </outline>
</glyph>
<glyph name="heh-ar" format="2">
  <advance width="474"/>
  <unicode hex="0647"/>
  <anchor x="263" y="-30" name="bottom"/>
  <anchor x="261" y="428" name="top"/>
  <outline>
    <contour>
      <point x="361" y="164" type="curve" smooth="yes"/>
      <point x="361" y="99"/>
      <point x="355" y="90"/>
      <point x="302" y="90" type="curve" smooth="yes"/>
      <point x="167" y="90"/>
      <point x="158" y="92"/>
      <point x="158" y="100" type="curve" smooth="yes"/>
      <point x="158" y="138"/>
      <point x="308" y="286"/>
      <point x="347" y="286" type="curve" smooth="yes"/>
      <point x="352" y="286"/>
      <point x="355" y="276"/>
      <point x="356" y="267" type="curve" smooth="yes"/>
      <point x="359" y="240"/>
      <point x="361" y="190"/>
    </contour>
    <contour>
      <point x="368" y="0" type="curve"/>
      <point x="417" y="0"/>
      <point x="419" y="79"/>
      <point x="419" y="152" type="curve" smooth="yes"/>
      <point x="419" y="188"/>
      <point x="411" y="306"/>
      <point x="411" y="356" type="curve"/>
      <point x="394" y="375"/>
      <point x="367" y="395"/>
      <point x="357" y="395" type="curve" smooth="yes"/>
      <point x="301" y="395"/>
      <point x="54" y="147"/>
      <point x="54" y="93" type="curve" smooth="yes"/>
      <point x="54" y="61"/>
      <point x="55" y="43"/>
      <point x="68" y="0" type="curve"/>
      <point x="159" y="0"/>
      <point x="268" y="0"/>
    </contour>
  </outline>
</glyph>
<glyph name="damma-ar" format="2">
  <unicode hex="064F"/>
  <anchor x="131" y="526" name="_top"/>
  <anchor x="124" y="726" name="top"/>
  <outline>
    <contour>
      <point x="176" y="685" type="curve" smooth="yes"/>
      <point x="180" y="670"/>
      <point x="184" y="638"/>
      <point x="184" y="616" type="curve" smooth="yes"/>
      <point x="184" y="602"/>
      <point x="183" y="591"/>
      <point x="178" y="591" type="curve" smooth="yes"/>
      <point x="36" y="591" type="line"/>
      <point x="36" y="576"/>
      <point x="39" y="556"/>
      <point x="49" y="556" type="curve" smooth="yes"/>
      <point x="186" y="556"/>
      <point x="195" y="556"/>
      <point x="208" y="556" type="curve"/>
      <point x="214" y="580"/>
      <point x="217" y="605"/>
      <point x="217" y="631" type="curve" smooth="yes"/>
      <point x="217" y="651"/>
      <point x="215" y="672"/>
      <point x="211" y="695" type="curve" smooth="yes"/>
      <point x="210" y="700"/>
      <point x="174" y="692"/>
    </contour>
  </outline>
</glyph>
<glyph name="five-ar" format="2">
  <advance width="426"/>
  <unicode hex="0665"/>
  <outline>
    <contour>
      <point x="158" y="515"/>
      <point x="40" y="354"/>
      <point x="40" y="204" type="curve" smooth="yes"/>
      <point x="40" y="124"/>
      <point x="92" y="73"/>
      <point x="214" y="73" type="curve" smooth="yes"/>
      <point x="332" y="73"/>
      <point x="386" y="133"/>
      <point x="386" y="219" type="curve" smooth="yes"/>
      <point x="386" y="385"/>
      <point x="297" y="515"/>
      <point x="214" y="515" type="curve" smooth="yes"/>
    </contour>
    <contour>
      <point x="240" y="411"/>
      <point x="345" y="341"/>
      <point x="345" y="240" type="curve" smooth="yes"/>
      <point x="345" y="199"/>
      <point x="302" y="183"/>
      <point x="211" y="183" type="curve" smooth="yes"/>
      <point x="128" y="183"/>
      <point x="89" y="198"/>
      <point x="89" y="238" type="curve" smooth="yes"/>
      <point x="89" y="340"/>
      <point x="140" y="411"/>
      <point x="180" y="411" type="curve" smooth="yes"/>
    </contour>
  </outline>
</glyph>
<glyph name="seven-ar" format="2">
  <advance width="460"/>
  <unicode hex="0667"/>
  <outline>
    <contour>
      <point x="437" y="646" type="curve"/>
      <point x="329" y="435"/>
      <point x="271" y="297"/>
      <point x="209" y="135" type="curve"/>
      <point x="233" y="128" type="line"/>
      <point x="210" y="309"/>
      <point x="155" y="517"/>
      <point x="88" y="660" type="curve"/>
      <point x="60" y="660"/>
      <point x="14" y="602"/>
      <point x="0" y="568" type="curve"/>
      <point x="109" y="424"/>
      <point x="170" y="233"/>
      <point x="222" y="-7" type="curve"/>
      <point x="232" y="-7"/>
      <point x="243" y="-4"/>
      <point x="254" y="3" type="curve"/>
      <point x="321" y="257"/>
      <point x="368" y="403"/>
      <point x="460" y="622" type="curve"/>
      <point x="455" y="635"/>
      <point x="448" y="646"/>
    </contour>
  </outline>
</glyph>
<glyph name="eight-ar" format="2">
  <advance width="460"/>
  <unicode hex="0668"/>
  <outline>
    <contour>
      <point x="227" y="525" type="line"/>
      <point x="250" y="344"/>
      <point x="305" y="136"/>
      <point x="372" y="-7" type="curve"/>
      <point x="400" y="-7"/>
      <point x="446" y="51"/>
      <point x="460" y="85" type="curve"/>
      <point x="351" y="229"/>
      <point x="290" y="420"/>
      <point x="238" y="660" type="curve"/>
      <point x="228" y="660"/>
      <point x="217" y="657"/>
      <point x="206" y="650" type="curve"/>
      <point x="139" y="396"/>
      <point x="92" y="250"/>
      <point x="0" y="31" type="curve"/>
      <point x="5" y="18"/>
      <point x="12" y="7"/>
      <point x="23" y="7" type="curve"/>
      <point x="131" y="218"/>
      <point x="189" y="356"/>
      <point x="251" y="518" type="curve"/>
    </contour>
  </outline>
</glyph>
<glyph name="nine-ar" format="2">
  <advance width="412"/>
  <unicode hex="0669"/>
  <outline>
    <contour>
      <point x="279" y="532" type="line"/>
      <point x="279" y="408"/>
      <point x="209" y="338"/>
      <point x="157" y="338" type="curve" smooth="yes"/>
      <point x="125" y="338"/>
      <point x="100" y="363"/>
      <point x="100" y="417" type="curve" smooth="yes"/>
      <point x="100" y="472"/>
      <point x="147" y="571"/>
      <point x="230" y="579" type="curve"/>
      <point x="175" y="593" type="line"/>
      <point x="275" y="558"/>
      <point x="306" y="436"/>
      <point x="306" y="274" type="curve" smooth="yes"/>
      <point x="306" y="226"/>
      <point x="292" y="94"/>
      <point x="281" y="-6" type="curve"/>
      <point x="296" y="-2"/>
      <point x="313" y="3"/>
      <point x="323" y="20" type="curve"/>
      <point x="352" y="140"/>
      <point x="377" y="269"/>
      <point x="377" y="383" type="curve" smooth="yes"/>
      <point x="377" y="498"/>
      <point x="352" y="599"/>
      <point x="281" y="660" type="curve"/>
      <point x="126" y="648"/>
      <point x="35" y="483"/>
      <point x="35" y="358" type="curve" smooth="yes"/>
      <point x="35" y="281"/>
      <point x="70" y="220"/>
      <point x="144" y="220" type="curve" smooth="yes"/>
      <point x="196" y="220"/>
      <point x="302" y="287"/>
      <point x="310" y="505" type="curve"/>
    </contour>
  </outline>
</glyph>
<glyph name="alefabove-ar" format="2">
  <unicode hex="0670"/>
  <anchor x="47" y="529" name="_top"/>
  <anchor x="49" y="771" name="top"/>
  <outline>
    <contour>
      <point x="61" y="547" type="curve" smooth="yes"/>
      <point x="64" y="609"/>
      <point x="69" y="686"/>
      <point x="74" y="761" type="curve"/>
      <point x="56" y="761"/>
      <point x="37" y="757"/>
      <point x="27" y="754" type="curve" smooth="yes"/>
      <point x="22" y="752"/>
      <point x="21" y="752"/>
      <point x="21" y="749" type="curve" smooth="yes"/>
      <point x="21" y="742"/>
      <point x="33" y="650"/>
      <point x="35" y="537" type="curve"/>
      <point x="45" y="537"/>
      <point x="60" y="539"/>
    </contour>
  </outline>
</glyph>
<glyph name="leftarrowheadabove-ar" format="2">
  <unicode hex="08F7"/>
  <anchor x="80" y="539" name="_top"/>
  <anchor x="87" y="770" name="top"/>
  <anchor x="-14" y="719" name="top_alef"/>
  <outline>
    <contour>
      <point x="73" y="726" type="curve" smooth="yes"/>
      <point x="76" y="732"/>
      <point x="42" y="746"/>
      <point x="40" y="741" type="curve" smooth="yes"/>
      <point x="26" y="703"/>
      <point x="18" y="648"/>
      <point x="18" y="620" type="curve" smooth="yes"/>
      <point x="18" y="613"/>
      <point x="19" y="607"/>
      <point x="20" y="605" type="curve"/>
      <point x="29" y="586"/>
      <point x="111" y="582"/>
      <point x="128" y="582" type="curve" smooth="yes"/>
      <point x="136" y="582"/>
      <point x="142" y="582"/>
      <point x="144" y="583" type="curve" smooth="yes"/>
      <point x="148" y="586"/>
      <point x="156" y="598"/>
      <point x="159" y="614" type="curve"/>
      <point x="106" y="613"/>
      <point x="57" y="621"/>
      <point x="52" y="628" type="curve" smooth="yes"/>
      <point x="51" y="630"/>
      <point x="51" y="633"/>
      <point x="51" y="636" type="curve" smooth="yes"/>
      <point x="51" y="658"/>
      <point x="64" y="707"/>
    </contour>
  </outline>
</glyph>
<glyph name="foursuperior" format="2">
  <advance width="370"/>
  <unicode hex="2074"/>
  <outline>
    <contour>
      <point x="280" y="667" type="curve"/>
      <point x="257" y="667" type="line"/>
      <point x="173" y="565"/>
      <point x="105" y="472"/>
      <point x="20" y="376" type="curve"/>
      <point x="20" y="345" type="line"/>
      <point x="87" y="347"/>
      <point x="145" y="348"/>
      <point x="202" y="348" type="curve" smooth="yes"/>
      <point x="251" y="348"/>
      <point x="299" y="347"/>
      <point x="350" y="345" type="curve"/>
      <point x="350" y="390" type="line"/>
      <point x="311" y="388"/>
      <point x="268" y="387"/>
      <point x="225" y="387" type="curve" smooth="yes"/>
      <point x="187" y="387"/>
      <point x="148" y="388"/>
      <point x="112" y="390" type="curve"/>
      <point x="146" y="450"/>
      <point x="152" y="459"/>
      <point x="207" y="545" type="curve"/>
      <point x="207" y="343"/>
      <point x="209" y="456"/>
      <point x="202" y="251" type="curve"/>
      <point x="284" y="251" type="line"/>
      <point x="279" y="346"/>
      <point x="279" y="577"/>
    </contour>
  </outline>
</glyph>
<glyph name="partialdiff" format="2">
  <advance width="481"/>
  <unicode hex="2202"/>
  <outline>
    <contour>
      <point x="358" y="336" type="curve" smooth="yes"/>
      <point x="358" y="125"/>
      <point x="330" y="52"/>
      <point x="250" y="52" type="curve" smooth="yes"/>
      <point x="176" y="52"/>
      <point x="137" y="140"/>
      <point x="137" y="226" type="curve" smooth="yes"/>
      <point x="137" y="309"/>
      <point x="173" y="390"/>
      <point x="250" y="390" type="curve" smooth="yes"/>
      <point x="292" y="390"/>
      <point x="364" y="336"/>
      <point x="360" y="229" type="curve"/>
      <point x="394" y="291" type="line"/>
      <point x="375" y="392"/>
      <point x="310" y="436"/>
      <point x="241" y="436" type="curve" smooth="yes"/>
      <point x="144" y="436"/>
      <point x="40" y="350"/>
      <point x="40" y="210" type="curve" smooth="yes"/>
      <point x="40" y="102"/>
      <point x="108" y="-5"/>
      <point x="249" y="-5" type="curve" smooth="yes"/>
      <point x="376" y="-5"/>
      <point x="458" y="126"/>
      <point x="458" y="327" type="curve" smooth="yes"/>
      <point x="458" y="586"/>
      <point x="368" y="728"/>
      <point x="225" y="728" type="curve" smooth="yes"/>
      <point x="158" y="728"/>
      <point x="88" y="686"/>
      <point x="33" y="589" type="curve"/>
      <point x="52" y="575" type="line"/>
      <point x="94" y="643"/>
      <point x="144" y="672"/>
      <point x="192" y="672" type="curve" smooth="yes"/>
      <point x="302" y="672"/>
      <point x="358" y="563"/>
    </contour>
  </outline>
</glyph>
<glyph name="product" format="2">
  <advance width="701"/>
  <unicode hex="220F"/>
  <outline>
    <contour>
      <point x="667" y="660" type="line"/>
      <point x="625" y="657"/>
      <point x="585" y="656"/>
      <point x="542" y="656" type="curve" smooth="yes"/>
      <point x="503" y="656"/>
      <point x="198" y="656"/>
      <point x="155" y="656" type="curve" smooth="yes"/>
      <point x="116" y="656"/>
      <point x="74" y="658"/>
      <point x="33" y="660" type="curve"/>
      <point x="23" y="629" type="line"/>
      <point x="111" y="608" type="line"/>
      <point x="114" y="520"/>
      <point x="116" y="426"/>
      <point x="116" y="332" type="curve" smooth="yes"/>
      <point x="116" y="238"/>
      <point x="114" y="143"/>
      <point x="111" y="51" type="curve"/>
      <point x="23" y="30" type="line"/>
      <point x="33" y="0" type="line"/>
      <point x="74" y="1"/>
      <point x="116" y="3"/>
      <point x="155" y="3" type="curve" smooth="yes"/>
      <point x="201" y="3"/>
      <point x="233" y="2"/>
      <point x="280" y="0" type="curve"/>
      <point x="291" y="30" type="line"/>
      <point x="203" y="51" type="line"/>
      <point x="203" y="145"/>
      <point x="202" y="240"/>
      <point x="202" y="301" type="curve" smooth="yes"/>
      <point x="202" y="428"/>
      <point x="203" y="521"/>
      <point x="203" y="608" type="curve"/>
      <point x="236" y="614"/>
      <point x="289" y="617"/>
      <point x="343" y="617" type="curve" smooth="yes"/>
      <point x="401" y="617"/>
      <point x="461" y="614"/>
      <point x="498" y="608" type="curve"/>
      <point x="501" y="520"/>
      <point x="503" y="436"/>
      <point x="503" y="372" type="curve" smooth="yes"/>
      <point x="503" y="248"/>
      <point x="501" y="143"/>
      <point x="498" y="51" type="curve"/>
      <point x="410" y="30" type="line"/>
      <point x="420" y="0" type="line"/>
      <point x="461" y="1"/>
      <point x="503" y="3"/>
      <point x="542" y="3" type="curve" smooth="yes"/>
      <point x="588" y="3"/>
      <point x="620" y="2"/>
      <point x="667" y="0" type="curve"/>
      <point x="678" y="30" type="line"/>
      <point x="590" y="51" type="line"/>
      <point x="590" y="145"/>
      <point x="589" y="240"/>
      <point x="589" y="284" type="curve" smooth="yes"/>
      <point x="589" y="428"/>
      <point x="590" y="521"/>
      <point x="590" y="608" type="curve"/>
      <point x="678" y="629" type="line"/>
    </contour>
  </outline>
</glyph>
<glyph name="radical" format="2">
  <advance width="642"/>
  <unicode hex="221A"/>
  <outline>
    <contour>
      <point x="316" y="-46" type="line"/>
      <point x="383" y="-46" type="line"/>
      <point x="633" y="705" type="line"/>
      <point x="742" y="728" type="line"/>
      <point x="730" y="762" type="line"/>
      <point x="712" y="761"/>
      <point x="693" y="761"/>
      <point x="675" y="761" type="curve" smooth="yes"/>
      <point x="645" y="761"/>
      <point x="616" y="762"/>
      <point x="586" y="763" type="curve"/>
      <point x="355" y="66" type="line"/>
      <point x="182" y="360" type="line"/>
      <point x="171" y="360"/>
      <point x="158" y="360"/>
      <point x="143" y="360" type="curve" smooth="yes"/>
      <point x="107" y="360"/>
      <point x="61" y="360"/>
      <point x="1" y="361" type="curve"/>
      <point x="0" y="325" type="line"/>
      <point x="112" y="302" type="line"/>
    </contour>
  </outline>
</glyph>
<glyph name="notequal" format="2">
  <advance width="521"/>
  <unicode hex="2260"/>
  <outline>
    <component base="equal"/>
    <contour>
      <point x="382" y="607" type="line"/>
      <point x="316" y="607" type="line"/>
      <point x="139" y="82" type="line"/>
      <point x="204" y="82" type="line"/>
    </contour>
  </outline>
</glyph>
<glyph name="lessequal" format="2">
  <advance width="521"/>
  <unicode hex="2264"/>
  <outline>
    <contour>
      <point x="35" y="395" type="line"/>
      <point x="35" y="345" type="line"/>
      <point x="500" y="144" type="line"/>
      <point x="500" y="206" type="line"/>
      <point x="77" y="391" type="line"/>
      <point x="77" y="348" type="line"/>
      <point x="500" y="535" type="line"/>
      <point x="500" y="595" type="line"/>
    </contour>
    <contour>
      <point x="500" y="102" type="line"/>
      <point x="359" y="99"/>
      <point x="176" y="99"/>
      <point x="35" y="102" type="curve"/>
      <point x="35" y="39" type="line"/>
      <point x="176" y="42"/>
      <point x="359" y="42"/>
      <point x="500" y="39" type="curve"/>
    </contour>
  </outline>
</glyph>
<glyph name="fl" format="2">
  <advance width="548"/>
  <unicode hex="FB02"/>
  <outline>
    <contour>
      <point x="97" y="464" type="curve" smooth="yes"/>
      <point x="94" y="403"/>
      <point x="94" y="343"/>
      <point x="94" y="283" type="curve" smooth="yes"/>
      <point x="94" y="216"/>
      <point x="94" y="125"/>
      <point x="93" y="48" type="curve"/>
      <point x="14" y="27" type="line"/>
      <point x="24" y="0" type="line"/>
      <point x="65" y="1"/>
      <point x="98" y="4"/>
      <point x="138" y="3" type="curve" smooth="yes"/>
      <point x="181" y="2"/>
      <point x="221" y="2"/>
      <point x="276" y="0" type="curve"/>
      <point x="287" y="27" type="line"/>
      <point x="182" y="51" type="line"/>
      <point x="179" y="185"/>
      <point x="179" y="429"/>
      <point x="179" y="465" type="curve" smooth="yes"/>
      <point x="179" y="579"/>
      <point x="201" y="657"/>
      <point x="261" y="693" type="curve"/>
      <point x="303" y="695"/>
      <point x="365" y="663"/>
      <point x="369" y="586" type="curve"/>
      <point x="455" y="660" type="line"/>
      <point x="447" y="683"/>
      <point x="407" y="745"/>
      <point x="317" y="745" type="curve" smooth="yes"/>
      <point x="196" y="745"/>
      <point x="105" y="615"/>
    </contour>
    <contour>
      <point x="21" y="418" type="line"/>
      <point x="9" y="382" type="line"/>
      <point x="130" y="378"/>
      <point x="197" y="372"/>
      <point x="286" y="360" type="curve"/>
      <point x="278" y="418" type="line"/>
    </contour>
    <contour>
      <point x="455" y="660" type="curve"/>
      <point x="366" y="683" type="line"/>
      <point x="370" y="582"/>
      <point x="373" y="435"/>
      <point x="373" y="285" type="curve" smooth="yes"/>
      <point x="373" y="204"/>
      <point x="372" y="123"/>
      <point x="370" y="48" type="curve"/>
      <point x="290" y="27" type="line"/>
      <point x="301" y="0" type="line"/>
      <point x="331" y="1"/>
      <point x="375" y="2"/>
      <point x="415" y="2" type="curve" smooth="yes"/>
      <point x="457" y="2"/>
      <point x="496" y="1"/>
      <point x="526" y="0" type="curve"/>
      <point x="537" y="27" type="line"/>
      <point x="458" y="48" type="line"/>
      <point x="455" y="193"/>
      <point x="454" y="318"/>
      <point x="454" y="451" type="curve" smooth="yes"/>
      <point x="454" y="517"/>
      <point x="455" y="586"/>
    </contour>
  </outline>
</glyph>
<glyph name="ain-ar.fina" format="2">
  <advance width="584"/>
  <anchor x="288" y="-58" name="bottom"/>
  <anchor x="584" y="0" name="entry"/>
  <anchor x="298" y="535" name="top"/>
  <outline>
    <contour>
      <point x="110" y="-344" type="curve"/>
      <point x="112" y="0"/>
      <point x="197" y="133"/>
      <point x="467" y="185" type="curve"/>
      <point x="487" y="214"/>
      <point x="491" y="233"/>
      <point x="495" y="261" type="curve"/>
      <point x="445" y="317"/>
      <point x="379" y="400"/>
      <point x="331" y="485" type="curve"/>
      <point x="317" y="493"/>
      <point x="287" y="509"/>
      <point x="275" y="509" type="curve" smooth="yes"/>
      <point x="273" y="509"/>
      <point x="272" y="508"/>
      <point x="271" y="507" type="curve"/>
      <point x="211" y="425"/>
      <point x="148" y="354"/>
      <point x="60" y="266" type="curve"/>
      <point x="74" y="225"/>
      <point x="87" y="203"/>
      <point x="102" y="183" type="curve"/>
      <point x="223" y="177"/>
      <point x="257" y="156"/>
      <point x="257" y="124" type="curve" smooth="yes"/>
      <point x="257" y="80"/>
      <point x="274" y="0"/>
      <point x="301" y="0" type="curve" smooth="yes"/>
      <point x="604" y="0" type="line"/>
      <point x="604" y="90" type="line"/>
      <point x="340" y="90" type="line" smooth="yes"/>
      <point x="321" y="90"/>
      <point x="321" y="114"/>
      <point x="321" y="138" type="curve" smooth="yes"/>
      <point x="320" y="210"/>
      <point x="276" y="233"/>
      <point x="177" y="258" type="curve" smooth="yes"/>
      <point x="171" y="259"/>
      <point x="169" y="262"/>
      <point x="172" y="265" type="curve" smooth="yes"/>
      <point x="211" y="304"/>
      <point x="264" y="366"/>
      <point x="288" y="392" type="curve" smooth="yes"/>
      <point x="292" y="397"/>
      <point x="294" y="399"/>
      <point x="296" y="399" type="curve" smooth="yes"/>
      <point x="297" y="399"/>
      <point x="299" y="398"/>
      <point x="303" y="393" type="curve" smooth="yes"/>
      <point x="337" y="353"/>
      <point x="363" y="314"/>
      <point x="397" y="280" type="curve" smooth="yes"/>
      <point x="405" y="272"/>
      <point x="407" y="269"/>
      <point x="407" y="267" type="curve" smooth="yes"/>
      <point x="407" y="265"/>
      <point x="405" y="264"/>
      <point x="403" y="263" type="curve" smooth="yes"/>
      <point x="64" y="156"/>
      <point x="70" y="-37"/>
      <point x="82" y="-360" type="curve"/>
      <point x="94" y="-360"/>
      <point x="109" y="-355"/>
    </contour>
  </outline>
</glyph>
<glyph name="alef-ar.fina" format="2">
  <advance width="227"/>
  <anchor x="104" y="-160" name="bottom"/>
  <anchor x="227" y="0" name="entry"/>
  <anchor x="85" y="631" name="top"/>
  <outline>
    <contour>
      <point x="55" y="554" type="curve"/>
      <point x="72" y="374"/>
      <point x="78" y="155"/>
      <point x="78" y="-52" type="curve" smooth="yes"/>
      <point x="78" y="-81"/>
      <point x="78" y="-109"/>
      <point x="78" y="-137" type="curve"/>
      <point x="93" y="-137"/>
      <point x="118" y="-135"/>
      <point x="129" y="-123" type="curve"/>
      <point x="130" y="-78"/>
      <point x="132" y="0"/>
      <point x="142" y="0" type="curve" smooth="yes"/>
      <point x="247" y="0" type="line"/>
      <point x="247" y="90" type="line"/>
      <point x="134" y="90"/>
      <point x="133" y="92"/>
      <point x="133" y="140" type="curve" smooth="yes"/>
      <point x="133" y="268"/>
      <point x="134" y="492"/>
      <point x="136" y="568" type="curve"/>
      <point x="131" y="575"/>
      <point x="128" y="579"/>
      <point x="125" y="579" type="curve" smooth="yes"/>
      <point x="109" y="579"/>
      <point x="84" y="572"/>
    </contour>
  </outline>
</glyph>
<glyph name="alefMaksura-ar.fina" format="2">
  <advance width="793"/>
  <anchor x="633" y="-110" name="bottom"/>
  <anchor x="793" y="0" name="entry"/>
  <anchor x="444" y="289" name="top"/>
  <outline>
    <contour>
      <point x="507" y="34" type="curve" smooth="yes"/>
      <point x="513" y="30"/>
      <point x="511" y="24"/>
      <point x="508" y="18" type="curve" smooth="yes"/>
      <point x="431" y="-125"/>
      <point x="252" y="-218"/>
      <point x="120" y="-218" type="curve" smooth="yes"/>
      <point x="31" y="-218"/>
      <point x="-36" y="-176"/>
      <point x="-36" y="-78" type="curve" smooth="yes"/>
      <point x="-36" y="-66"/>
      <point x="-35" y="-53"/>
      <point x="-32" y="-39" type="curve"/>
      <point x="-37" y="-35"/>
      <point x="-40" y="-33"/>
      <point x="-45" y="-33" type="curve" smooth="yes"/>
      <point x="-49" y="-33"/>
      <point x="-52" y="-34"/>
      <point x="-55" y="-35" type="curve"/>
      <point x="-72" y="-76"/>
      <point x="-80" y="-113"/>
      <point x="-80" y="-144" type="curve" smooth="yes"/>
      <point x="-80" y="-259"/>
      <point x="-3" y="-308"/>
      <point x="99" y="-308" type="curve" smooth="yes"/>
      <point x="265" y="-308"/>
      <point x="490" y="-179"/>
      <point x="585" y="7" type="curve" smooth="yes"/>
      <point x="595" y="27"/>
      <point x="600" y="46"/>
      <point x="600" y="60" type="curve" smooth="yes"/>
      <point x="600" y="68"/>
      <point x="598" y="75"/>
      <point x="594" y="78" type="curve"/>
      <point x="530" y="136"/>
      <point x="439" y="152"/>
      <point x="439" y="168" type="curve" smooth="yes"/>
      <point x="439" y="175"/>
      <point x="551" y="213"/>
      <point x="609" y="213" type="curve" smooth="yes"/>
      <point x="648" y="213"/>
      <point x="652" y="175"/>
      <point x="654" y="150" type="curve" smooth="yes"/>
      <point x="658" y="97"/>
      <point x="667" y="0"/>
      <point x="696" y="0" type="curve" smooth="yes"/>
      <point x="813" y="0" type="line"/>
      <point x="813" y="90" type="line"/>
      <point x="783" y="90"/>
      <point x="768" y="90"/>
      <point x="740" y="90" type="curve" smooth="yes"/>
      <point x="720" y="90"/>
      <point x="717" y="108"/>
      <point x="709" y="188" type="curve" smooth="yes"/>
      <point x="700" y="272"/>
      <point x="685" y="300"/>
      <point x="640" y="300" type="curve" smooth="yes"/>
      <point x="554" y="300"/>
      <point x="458" y="250"/>
      <point x="350" y="188" type="curve"/>
      <point x="350" y="154"/>
      <point x="353" y="117"/>
      <point x="366" y="96" type="curve"/>
      <point x="428" y="76"/>
      <point x="461" y="63"/>
    </contour>
  </outline>
</glyph>
<glyph name="approxequal.rtl" format="2">
  <advance width="521"/>
  <outline>
    <contour>
      <point x="146" y="344" type="curve" smooth="yes"/>
      <point x="215" y="344"/>
      <point x="307" y="439"/>
      <point x="355" y="439" type="curve"/>
      <point x="405" y="418"/>
      <point x="455" y="371"/>
      <point x="471" y="355" type="curve"/>
      <point x="496" y="375" type="line"/>
      <point x="463" y="419"/>
      <point x="398" y="503"/>
      <point x="325" y="503" type="curve" smooth="yes"/>
      <point x="240" y="503"/>
      <point x="181" y="414"/>
      <point x="116" y="414" type="curve"/>
      <point x="85" y="434"/>
      <point x="49" y="462"/>
      <point x="20" y="489" type="curve"/>
      <point x="-2" y="469" type="line"/>
      <point x="45" y="407"/>
      <point x="94" y="344"/>
    </contour>
    <contour>
      <point x="146" y="164" type="curve" smooth="yes"/>
      <point x="215" y="164"/>
      <point x="307" y="259"/>
      <point x="355" y="259" type="curve"/>
      <point x="405" y="238"/>
      <point x="455" y="191"/>
      <point x="471" y="175" type="curve"/>
      <point x="496" y="195" type="line"/>
      <point x="463" y="239"/>
      <point x="398" y="323"/>
      <point x="325" y="323" type="curve" smooth="yes"/>
      <point x="240" y="323"/>
      <point x="181" y="234"/>
      <point x="116" y="234" type="curve"/>
      <point x="85" y="254"/>
      <point x="49" y="282"/>
      <point x="20" y="309" type="curve"/>
      <point x="-2" y="289" type="line"/>
      <point x="45" y="227"/>
      <point x="94" y="164"/>
    </contour>
  </outline>
</glyph>
<glyph name="beh-ar.init.alt" format="2">
  <advance width="277"/>
  <anchor x="134" y="-227" name="bottom"/>
  <anchor x="0" y="0" name="exit"/>
  <anchor x="75" y="621" name="top"/>
  <outline>
    <component base="_dot1Below" xOffset="25" yOffset="-30"/>
    <contour>
      <point x="-20" y="0" type="line"/>
      <point x="117" y="0" type="line" smooth="yes"/>
      <point x="196" y="0"/>
      <point x="209" y="37"/>
      <point x="209" y="200" type="curve" smooth="yes"/>
      <point x="209" y="280"/>
      <point x="194" y="467"/>
      <point x="184" y="582" type="curve"/>
      <point x="179" y="589"/>
      <point x="175" y="593"/>
      <point x="172" y="593" type="curve" smooth="yes"/>
      <point x="156" y="593"/>
      <point x="116" y="574"/>
      <point x="87" y="556" type="curve"/>
      <point x="119" y="464"/>
      <point x="151" y="272"/>
      <point x="151" y="170" type="curve" smooth="yes"/>
      <point x="151" y="94"/>
      <point x="134" y="90"/>
      <point x="99" y="90" type="curve" smooth="yes"/>
      <point x="-20" y="90" type="line"/>
    </contour>
  </outline>
</glyph>
<glyph name="eight-ar.small" format="2">
  <advance width="350"/>
  <anchor x="0" y="0" name="digit"/>
  <outline>
    <contour>
      <point x="282" y="-10" type="curve"/>
      <point x="305" y="0"/>
      <point x="330" y="28"/>
      <point x="343" y="55" type="curve"/>
      <point x="271" y="157"/>
      <point x="216" y="296"/>
      <point x="181" y="469" type="curve"/>
      <point x="181" y="468" type="line"/>
      <point x="181" y="469" type="line"/>
      <point x="172" y="469"/>
      <point x="167" y="465"/>
      <point x="159" y="458" type="curve"/>
      <point x="115" y="281"/>
      <point x="68" y="149"/>
      <point x="7" y="18" type="curve"/>
      <point x="12" y="-1"/>
      <point x="18" y="-7"/>
      <point x="24" y="-7" type="curve"/>
      <point x="106" y="147"/>
      <point x="162" y="279"/>
      <point x="186" y="371" type="curve"/>
      <point x="170" y="388" type="line"/>
      <point x="183" y="252"/>
      <point x="226" y="84"/>
    </contour>
  </outline>
</glyph>
<glyph name="eight.small" format="2">
  <advance width="350"/>
  <anchor x="0" y="0" name="digit"/>
  <outline>
    <contour>
      <point x="199" y="249" type="line"/>
      <point x="275" y="268"/>
      <point x="312" y="317"/>
      <point x="312" y="364" type="curve" smooth="yes"/>
      <point x="312" y="417"/>
      <point x="264" y="467"/>
      <point x="173" y="467" type="curve" smooth="yes"/>
      <point x="100" y="467"/>
      <point x="33" y="430"/>
      <point x="33" y="357" type="curve" smooth="yes"/>
      <point x="33" y="214"/>
      <point x="254" y="219"/>
      <point x="254" y="101" type="curve" smooth="yes"/>
      <point x="254" y="51"/>
      <point x="218" y="26"/>
      <point x="180" y="26" type="curve" smooth="yes"/>
      <point x="139" y="26"/>
      <point x="96" y="55"/>
      <point x="96" y="111" type="curve" smooth="yes"/>
      <point x="96" y="151"/>
      <point x="118" y="195"/>
      <point x="155" y="229" type="curve"/>
      <point x="141" y="242" type="line"/>
      <point x="44" y="206"/>
      <point x="19" y="152"/>
      <point x="19" y="106" type="curve" smooth="yes"/>
      <point x="19" y="30"/>
      <point x="93" y="-9"/>
      <point x="174" y="-9" type="curve" smooth="yes"/>
      <point x="255" y="-9"/>
      <point x="331" y="31"/>
      <point x="331" y="114" type="curve" smooth="yes"/>
      <point x="331" y="266"/>
      <point x="110" y="270"/>
      <point x="110" y="372" type="curve" smooth="yes"/>
      <point x="110" y="413"/>
      <point x="140" y="433"/>
      <point x="171" y="433" type="curve" smooth="yes"/>
      <point x="206" y="433"/>
      <point x="244" y="407"/>
      <point x="244" y="357" type="curve" smooth="yes"/>
      <point x="244" y="322"/>
      <point x="216" y="280"/>
      <point x="176" y="267" type="curve"/>
    </contour>
  </outline>
</glyph>
<glyph name="endofayah-ar.3.ss02" format="2">
  <advance width="1700"/>
  <outline>
    <contour>
      <point x="851" y="-618" type="curve" smooth="yes"/>
      <point x="1307" y="-618"/>
      <point x="1673" y="-248"/>
      <point x="1673" y="210" type="curve" smooth="yes"/>
      <point x="1673" y="665"/>
      <point x="1306" y="1034"/>
      <point x="851" y="1034" type="curve" smooth="yes"/>
      <point x="394" y="1034"/>
      <point x="27" y="666"/>
      <point x="28" y="210" type="curve" smooth="yes"/>
      <point x="27" y="-248"/>
      <point x="394" y="-618"/>
    </contour>
    <contour>
      <point x="851" y="-590" type="curve" smooth="yes"/>
      <point x="409" y="-590"/>
      <point x="55" y="-233"/>
      <point x="55" y="210" type="curve" smooth="yes"/>
      <point x="55" y="650"/>
      <point x="409" y="1006"/>
      <point x="851" y="1006" type="curve" smooth="yes"/>
      <point x="1291" y="1006"/>
      <point x="1645" y="649"/>
      <point x="1645" y="210" type="curve" smooth="yes"/>
      <point x="1645" y="-233"/>
      <point x="1291" y="-590"/>
    </contour>
    <contour>
      <point x="851" y="-525" type="curve" smooth="yes"/>
      <point x="439" y="-525"/>
      <point x="115" y="-190"/>
      <point x="115" y="210" type="curve" smooth="yes"/>
      <point x="115" y="608"/>
      <point x="442" y="942"/>
      <point x="851" y="942" type="curve" smooth="yes"/>
      <point x="1258" y="942"/>
      <point x="1586" y="607"/>
      <point x="1586" y="210" type="curve" smooth="yes"/>
      <point x="1586" y="-190"/>
      <point x="1259" y="-525"/>
    </contour>
    <contour>
      <point x="851" y="-555" type="curve" smooth="yes"/>
      <point x="1270" y="-555"/>
      <point x="1612" y="-212"/>
      <point x="1612" y="210" type="curve" smooth="yes"/>
      <point x="1612" y="628"/>
      <point x="1270" y="971"/>
      <point x="851" y="971" type="curve" smooth="yes"/>
      <point x="430" y="971"/>
      <point x="87" y="629"/>
      <point x="87" y="210" type="curve" smooth="yes"/>
      <point x="87" y="-212"/>
      <point x="430" y="-555"/>
    </contour>
    <contour>
      <point x="102" y="225" type="line"/>
      <point x="102" y="187" type="line"/>
      <point x="486" y="-165" type="line" smooth="yes"/>
      <point x="603" y="-273"/>
      <point x="723" y="-314"/>
      <point x="850" y="-314" type="curve" smooth="yes"/>
      <point x="1007" y="-314"/>
      <point x="1112" y="-262"/>
      <point x="1227" y="-154" type="curve" smooth="yes"/>
      <point x="1596" y="193" type="line"/>
      <point x="1596" y="229" type="line"/>
      <point x="1213" y="581" type="line" smooth="yes"/>
      <point x="1154" y="635"/>
      <point x="1040" y="730"/>
      <point x="851" y="730" type="curve" smooth="yes"/>
      <point x="714" y="730"/>
      <point x="582" y="677"/>
      <point x="479" y="573" type="curve"/>
    </contour>
    <contour>
      <point x="973" y="-521" type="line"/>
      <point x="1001" y="-514" type="line"/>
      <point x="1001" y="-277" type="line"/>
      <point x="973" y="-287" type="line"/>
    </contour>
    <contour>
      <point x="837" y="-535" type="line"/>
      <point x="865" y="-535" type="line"/>
      <point x="865" y="-307" type="line"/>
      <point x="837" y="-307" type="line"/>
    </contour>
    <contour>
      <point x="905" y="-533" type="line"/>
      <point x="933" y="-529" type="line"/>
      <point x="933" y="-297" type="line"/>
      <point x="905" y="-303" type="line"/>
    </contour>
    <contour>
      <point x="769" y="-529" type="line"/>
      <point x="797" y="-533" type="line"/>
      <point x="797" y="-303" type="line"/>
      <point x="769" y="-297" type="line"/>
    </contour>
    <contour>
      <point x="701" y="-514" type="line"/>
      <point x="729" y="-521" type="line"/>
      <point x="729" y="-287" type="line"/>
      <point x="701" y="-277" type="line"/>
    </contour>
    <contour>
      <point x="851" y="700" type="curve" smooth="yes"/>
      <point x="1001" y="700"/>
      <point x="1093" y="650"/>
      <point x="1233" y="522" type="curve" smooth="yes"/>
      <point x="1571" y="211" type="line"/>
      <point x="1213" y="-126" type="line" smooth="yes"/>
      <point x="1107" y="-226"/>
      <point x="1005" y="-284"/>
      <point x="851" y="-284" type="curve" smooth="yes"/>
      <point x="697" y="-284"/>
      <point x="592" y="-224"/>
      <point x="493" y="-132" type="curve" smooth="yes"/>
      <point x="126" y="206" type="line"/>
      <point x="500" y="552" type="line" smooth="yes"/>
      <point x="586" y="632"/>
      <point x="691" y="700"/>
    </contour>
    <contour>
      <point x="973" y="703" type="line"/>
      <point x="1001" y="693" type="line"/>
      <point x="1001" y="930" type="line"/>
      <point x="973" y="937" type="line"/>
    </contour>
    <contour>
      <point x="837" y="723" type="line"/>
      <point x="865" y="723" type="line"/>
      <point x="865" y="951" type="line"/>
      <point x="837" y="951" type="line"/>
    </contour>
    <contour>
      <point x="905" y="719" type="line"/>
      <point x="933" y="713" type="line"/>
      <point x="933" y="945" type="line"/>
      <point x="905" y="949" type="line"/>
    </contour>
    <contour>
      <point x="769" y="713" type="line"/>
      <point x="797" y="719" type="line"/>
      <point x="797" y="949" type="line"/>
      <point x="769" y="945" type="line"/>
    </contour>
    <contour>
      <point x="701" y="693" type="line"/>
      <point x="729" y="703" type="line"/>
      <point x="729" y="937" type="line"/>
      <point x="701" y="930" type="line"/>
    </contour>
  </outline>
</glyph>
<glyph name="endofayah-ar.3.ss03" format="2">
  <advance width="1699"/>
  <outline>
    <contour>
      <point x="271" y="-363" type="curve" smooth="yes"/>
      <point x="591" y="-683"/>
      <point x="1108" y="-684"/>
      <point x="1429" y="-363" type="curve" smooth="yes"/>
      <point x="1749" y="-43"/>
      <point x="1749" y="476"/>
      <point x="1432" y="792" type="curve" smooth="yes"/>
      <point x="1109" y="1115"/>
      <point x="592" y="1116"/>
      <point x="269" y="793" type="curve" smooth="yes"/>
      <point x="-48" y="476"/>
      <point x="-49" y="-43"/>
    </contour>
    <contour>
      <point x="291" y="-343" type="curve" smooth="yes"/>
      <point x="-20" y="-33"/>
      <point x="-18" y="466"/>
      <point x="289" y="773" type="curve" smooth="yes"/>
      <point x="600" y="1085"/>
      <point x="1099" y="1086"/>
      <point x="1412" y="772" type="curve" smooth="yes"/>
      <point x="1717" y="468"/>
      <point x="1718" y="-34"/>
      <point x="1410" y="-343" type="curve" smooth="yes"/>
      <point x="1100" y="-653"/>
      <point x="599" y="-652"/>
    </contour>
    <contour>
      <point x="309" y="-324" type="curve" smooth="yes"/>
      <point x="609" y="-623"/>
      <point x="1093" y="-622"/>
      <point x="1390" y="-324" type="curve" smooth="yes"/>
      <point x="1687" y="-28"/>
      <point x="1687" y="459"/>
      <point x="1393" y="753" type="curve" smooth="yes"/>
      <point x="1093" y="1054"/>
      <point x="607" y="1053"/>
      <point x="308" y="754" type="curve" smooth="yes"/>
      <point x="12" y="459"/>
      <point x="13" y="-27"/>
    </contour>
    <contour>
      <point x="1559" y="217" type="line"/>
      <point x="850" y="-491" type="line"/>
      <point x="142" y="217" type="line"/>
      <point x="851" y="925" type="line"/>
    </contour>
    <contour>
      <point x="330" y="-303" type="curve" smooth="yes"/>
      <point x="44" y="-16"/>
      <point x="40" y="444"/>
      <point x="329" y="733" type="curve" smooth="yes"/>
      <point x="619" y="1024"/>
      <point x="1081" y="1023"/>
      <point x="1372" y="732" type="curve" smooth="yes"/>
      <point x="1661" y="443"/>
      <point x="1656" y="-16"/>
      <point x="1369" y="-303" type="curve" smooth="yes"/>
      <point x="1082" y="-590"/>
      <point x="618" y="-590"/>
    </contour>
    <contour>
      <point x="497" y="675" type="line"/>
      <point x="380" y="792" type="line"/>
      <point x="358" y="770" type="line"/>
      <point x="475" y="653" type="line"/>
    </contour>
    <contour>
      <point x="454" y="631" type="line"/>
      <point x="337" y="748" type="line"/>
      <point x="314" y="725" type="line"/>
      <point x="431" y="608" type="line"/>
    </contour>
    <contour>
      <point x="410" y="588" type="line"/>
      <point x="294" y="705" type="line"/>
      <point x="271" y="682" type="line"/>
      <point x="388" y="565" type="line"/>
    </contour>
    <contour>
      <point x="1594" y="217" type="line"/>
      <point x="851" y="961" type="line"/>
      <point x="107" y="217" type="line"/>
      <point x="850" y="-527" type="line"/>
    </contour>
    <contour>
      <point x="766" y="-522" type="line"/>
      <point x="808" y="-524" type="line"/>
      <point x="110" y="174" type="line"/>
      <point x="115" y="130" type="line"/>
    </contour>
    <contour>
      <point x="1587" y="131" type="line"/>
      <point x="1592" y="176" type="line"/>
      <point x="892" y="-524" type="line"/>
      <point x="934" y="-522" type="line"/>
    </contour>
    <contour>
      <point x="808" y="957" type="line"/>
      <point x="763" y="952" type="line"/>
      <point x="110" y="299" type="line"/>
      <point x="107" y="256" type="line"/>
    </contour>
    <contour>
      <point x="933" y="957" type="line"/>
      <point x="891" y="960" type="line"/>
      <point x="1595" y="256" type="line"/>
      <point x="1594" y="297" type="line"/>
    </contour>
    <contour>
      <point x="1423" y="-251" type="line"/>
      <point x="1306" y="-134" type="line"/>
      <point x="1284" y="-156" type="line"/>
      <point x="1402" y="-273" type="line"/>
    </contour>
    <contour>
      <point x="1380" y="-295" type="line"/>
      <point x="1264" y="-178" type="line"/>
      <point x="1240" y="-201" type="line"/>
      <point x="1357" y="-318" type="line"/>
    </contour>
    <contour>
      <point x="1336" y="-338" type="line"/>
      <point x="1220" y="-222" type="line"/>
      <point x="1197" y="-244" type="line"/>
      <point x="1314" y="-361" type="line"/>
    </contour>
    <contour>
      <point x="388" y="-134" type="line"/>
      <point x="271" y="-252" type="line"/>
      <point x="292" y="-273" type="line"/>
      <point x="410" y="-156" type="line"/>
    </contour>
    <contour>
      <point x="431" y="-177" type="line"/>
      <point x="314" y="-294" type="line"/>
      <point x="338" y="-317" type="line"/>
      <point x="454" y="-201" type="line"/>
    </contour>
    <contour>
      <point x="475" y="-221" type="line"/>
      <point x="358" y="-338" type="line"/>
      <point x="381" y="-360" type="line"/>
      <point x="498" y="-244" type="line"/>
    </contour>
    <contour>
      <point x="1314" y="792" type="line"/>
      <point x="1197" y="675" type="line"/>
      <point x="1219" y="653" type="line"/>
      <point x="1336" y="770" type="line"/>
    </contour>
    <contour>
      <point x="1357" y="749" type="line"/>
      <point x="1241" y="632" type="line"/>
      <point x="1264" y="609" type="line"/>
      <point x="1381" y="726" type="line"/>
    </contour>
    <contour>
      <point x="1401" y="705" type="line"/>
      <point x="1285" y="588" type="line"/>
      <point x="1307" y="566" type="line"/>
      <point x="1424" y="683" type="line"/>
    </contour>
  </outline>
</glyph>
<glyph name="five-ar.small" format="2">
  <advance width="350"/>
  <anchor x="0" y="0" name="digit"/>
  <outline>
    <contour>
      <point x="137" y="360"/>
      <point x="59" y="248"/>
      <point x="59" y="162" type="curve" smooth="yes"/>
      <point x="59" y="104"/>
      <point x="94" y="70"/>
      <point x="174" y="70" type="curve" smooth="yes"/>
      <point x="255" y="70"/>
      <point x="292" y="110"/>
      <point x="292" y="171" type="curve" smooth="yes"/>
      <point x="292" y="268"/>
      <point x="229" y="360"/>
      <point x="174" y="360" type="curve" smooth="yes"/>
    </contour>
    <contour>
      <point x="187" y="278"/>
      <point x="256" y="227"/>
      <point x="256" y="180" type="curve" smooth="yes"/>
      <point x="256" y="164"/>
      <point x="227" y="153"/>
      <point x="171" y="153" type="curve" smooth="yes"/>
      <point x="119" y="153"/>
      <point x="93" y="164"/>
      <point x="93" y="178" type="curve" smooth="yes"/>
      <point x="93" y="226"/>
      <point x="121" y="278"/>
      <point x="147" y="278" type="curve" smooth="yes"/>
    </contour>
  </outline>
</glyph>
<glyph name="five.small" format="2">
  <advance width="350"/>
  <anchor x="0" y="0" name="digit"/>
  <outline>
    <contour>
      <point x="41" y="257" type="curve"/>
      <point x="56" y="238" type="line"/>
      <point x="76" y="242"/>
      <point x="94" y="245"/>
      <point x="118" y="245" type="curve" smooth="yes"/>
      <point x="210" y="245"/>
      <point x="250" y="194"/>
      <point x="250" y="142" type="curve" smooth="yes"/>
      <point x="250" y="86"/>
      <point x="203" y="28"/>
      <point x="104" y="28" type="curve" smooth="yes"/>
      <point x="76" y="28"/>
      <point x="49" y="31"/>
      <point x="30" y="39" type="curve"/>
      <point x="27" y="5" type="line"/>
      <point x="57" y="-4"/>
      <point x="84" y="-6"/>
      <point x="108" y="-6" type="curve" smooth="yes"/>
      <point x="254" y="-6"/>
      <point x="323" y="80"/>
      <point x="323" y="164" type="curve" smooth="yes"/>
      <point x="323" y="241"/>
      <point x="264" y="315"/>
      <point x="150" y="315" type="curve" smooth="yes"/>
      <point x="121" y="315"/>
      <point x="105" y="314"/>
      <point x="85" y="312" type="curve"/>
      <point x="99" y="400" type="line"/>
      <point x="119" y="400"/>
      <point x="238" y="400"/>
      <point x="294" y="382" type="curve"/>
      <point x="297" y="460" type="line"/>
      <point x="269" y="459"/>
      <point x="205" y="458"/>
      <point x="172" y="458" type="curve" smooth="yes"/>
      <point x="144" y="458"/>
      <point x="100" y="459"/>
      <point x="59" y="460" type="curve"/>
      <point x="56" y="403"/>
      <point x="50" y="323"/>
    </contour>
  </outline>
</glyph>
<glyph name="four.small" format="2">
  <advance width="350"/>
  <anchor x="0" y="0" name="digit"/>
  <outline>
    <contour>
      <point x="292" y="469" type="curve"/>
      <point x="257" y="469" type="line"/>
      <point x="185" y="363"/>
      <point x="87" y="231"/>
      <point x="11" y="138" type="curve"/>
      <point x="11" y="107" type="line"/>
      <point x="87" y="108"/>
      <point x="144" y="108"/>
      <point x="196" y="108" type="curve" smooth="yes"/>
      <point x="248" y="108"/>
      <point x="296" y="108"/>
      <point x="350" y="107" type="curve"/>
      <point x="350" y="156" type="line"/>
      <point x="300" y="154"/>
      <point x="245" y="154"/>
      <point x="195" y="154" type="curve" smooth="yes"/>
      <point x="157" y="154"/>
      <point x="119" y="154"/>
      <point x="99" y="156" type="curve"/>
      <point x="127" y="208"/>
      <point x="165" y="265"/>
      <point x="216" y="335" type="curve"/>
      <point x="216" y="276"/>
      <point x="217" y="228"/>
      <point x="217" y="160" type="curve" smooth="yes"/>
      <point x="217" y="111"/>
      <point x="217" y="53"/>
      <point x="215" y="0" type="curve"/>
      <point x="293" y="0" type="line"/>
      <point x="291" y="82"/>
      <point x="291" y="160"/>
      <point x="291" y="228" type="curve" smooth="yes"/>
      <point x="291" y="310"/>
      <point x="291" y="388"/>
    </contour>
  </outline>
</glyph>
<glyph name="heh-ar.fina" format="2">
  <advance width="511"/>
  <anchor x="273" y="-30" name="bottom"/>
  <anchor x="511" y="0" name="entry"/>
  <anchor x="271" y="428" name="top"/>
  <outline>
    <contour>
      <point x="371" y="164" type="curve" smooth="yes"/>
      <point x="371" y="99"/>
      <point x="365" y="90"/>
      <point x="312" y="90" type="curve" smooth="yes"/>
      <point x="195" y="90"/>
      <point x="168" y="91"/>
      <point x="168" y="100" type="curve" smooth="yes"/>
      <point x="168" y="150"/>
      <point x="318" y="286"/>
      <point x="357" y="286" type="curve" smooth="yes"/>
      <point x="362" y="286"/>
      <point x="364" y="278"/>
      <point x="366" y="267" type="curve" smooth="yes"/>
      <point x="371" y="240"/>
      <point x="371" y="190"/>
    </contour>
    <contour>
      <point x="459" y="90" type="line" smooth="yes"/>
      <point x="441" y="90"/>
      <point x="438" y="95"/>
      <point x="438" y="152" type="curve" smooth="yes"/>
      <point x="438" y="198"/>
      <point x="435" y="296"/>
      <point x="430" y="356" type="curve"/>
      <point x="413" y="375"/>
      <point x="377" y="395"/>
      <point x="367" y="395" type="curve" smooth="yes"/>
      <point x="311" y="395"/>
      <point x="64" y="147"/>
      <point x="64" y="93" type="curve" smooth="yes"/>
      <point x="64" y="61"/>
      <point x="65" y="43"/>
      <point x="78" y="0" type="curve"/>
      <point x="170" y="0"/>
      <point x="292" y="0"/>
      <point x="531" y="0" type="curve"/>
      <point x="531" y="90" type="line" smooth="yes"/>
    </contour>
  </outline>
</glyph>
<glyph name="lam_alef-ar.fina" format="2">
  <advance width="517"/>
  <anchor x="477" y="-50" name="bottom_1"/>
  <anchor x="90" y="-50" name="bottom_2"/>
  <anchor x="309" y="0" name="caret_1"/>
  <anchor x="517" y="0" name="entry"/>
  <anchor x="407" y="684" name="top_1"/>
  <anchor x="98" y="630" name="top_2"/>
  <outline>
    <contour>
      <point x="289" y="-145" type="curve"/>
      <point x="309" y="-145"/>
      <point x="323" y="-145"/>
      <point x="331" y="-129" type="curve" smooth="yes"/>
      <point x="380" y="-35"/>
      <point x="409" y="0"/>
      <point x="469" y="0" type="curve" smooth="yes"/>
      <point x="537" y="0" type="line"/>
      <point x="537" y="90" type="line"/>
      <point x="476" y="90" type="line" smooth="yes"/>
      <point x="448" y="90"/>
      <point x="410" y="128"/>
      <point x="365" y="181" type="curve" smooth="yes"/>
      <point x="362" y="184"/>
      <point x="363" y="186"/>
      <point x="365" y="189" type="curve" smooth="yes"/>
      <point x="428" y="294"/>
      <point x="449" y="432"/>
      <point x="449" y="586" type="curve" smooth="yes"/>
      <point x="449" y="601"/>
      <point x="448" y="617"/>
      <point x="448" y="632" type="curve"/>
      <point x="443" y="639"/>
      <point x="439" y="643"/>
      <point x="436" y="643" type="curve" smooth="yes"/>
      <point x="420" y="643"/>
      <point x="380" y="624"/>
      <point x="357" y="612" type="curve"/>
      <point x="361" y="566"/>
      <point x="364" y="523"/>
      <point x="364" y="482" type="curve" smooth="yes"/>
      <point x="364" y="384"/>
      <point x="352" y="307"/>
      <point x="324" y="243" type="curve" smooth="yes"/>
      <point x="321" y="236"/>
      <point x="320" y="237"/>
      <point x="317" y="241" type="curve" smooth="yes"/>
      <point x="254" y="331"/>
      <point x="195" y="438"/>
      <point x="133" y="583" type="curve"/>
      <point x="127" y="583"/>
      <point x="118" y="582"/>
      <point x="108" y="577" type="curve"/>
      <point x="94" y="539"/>
      <point x="91" y="486"/>
      <point x="91" y="435" type="curve"/>
      <point x="150" y="338"/>
      <point x="203" y="269"/>
      <point x="273" y="180" type="curve" smooth="yes"/>
      <point x="276" y="176"/>
      <point x="276" y="174"/>
      <point x="273" y="171" type="curve" smooth="yes"/>
      <point x="228" y="121"/>
      <point x="177" y="90"/>
      <point x="102" y="90" type="curve" smooth="yes"/>
      <point x="45" y="90" type="line"/>
      <point x="44" y="54"/>
      <point x="59" y="0"/>
      <point x="90" y="0" type="curve" smooth="yes"/>
      <point x="157" y="0" type="line" smooth="yes"/>
      <point x="214" y="0"/>
      <point x="257" y="-54"/>
    </contour>
    <contour>
      <point x="309" y="-16" type="curve" smooth="yes"/>
      <point x="289" y="23"/>
      <point x="279" y="32"/>
      <point x="254" y="54" type="curve" smooth="yes"/>
      <point x="248" y="59"/>
      <point x="244" y="61"/>
      <point x="244" y="62" type="curve"/>
      <point x="244" y="63"/>
      <point x="251" y="66"/>
      <point x="268" y="80" type="curve" smooth="yes"/>
      <point x="276" y="86"/>
      <point x="295" y="102"/>
      <point x="304" y="111" type="curve" smooth="yes"/>
      <point x="309" y="116"/>
      <point x="317" y="124"/>
      <point x="320" y="124" type="curve" smooth="yes"/>
      <point x="322" y="124"/>
      <point x="324" y="122"/>
      <point x="325" y="121" type="curve" smooth="yes"/>
      <point x="353" y="97"/>
      <point x="362" y="89"/>
      <point x="384" y="69" type="curve"/>
      <point x="359" y="54"/>
      <point x="333" y="22"/>
      <point x="317" y="-12" type="curve" smooth="yes"/>
      <point x="314" y="-18"/>
      <point x="313" y="-20"/>
      <point x="312" y="-20" type="curve" smooth="yes"/>
      <point x="311" y="-20"/>
      <point x="310" y="-18"/>
    </contour>
  </outline>
</glyph>
<glyph name="meem-ar.fina" format="2">
  <advance width="482"/>
  <anchor x="260" y="-30" name="bottom"/>
  <anchor x="482" y="0" name="entry"/>
  <anchor x="268" y="440" name="top"/>
  <outline>
    <contour>
      <point x="199" y="0"/>
      <point x="445" y="0"/>
      <point x="502" y="0" type="curve"/>
      <point x="502" y="90" type="line"/>
      <point x="426" y="90" type="line" smooth="yes"/>
      <point x="395" y="90"/>
      <point x="392" y="99"/>
      <point x="386" y="198" type="curve" smooth="yes"/>
      <point x="382" y="268"/>
      <point x="377" y="322"/>
      <point x="367" y="382" type="curve" smooth="yes"/>
      <point x="365" y="392"/>
      <point x="341" y="411"/>
      <point x="327" y="411" type="curve" smooth="yes"/>
      <point x="304" y="411"/>
      <point x="36" y="165"/>
      <point x="36" y="121" type="curve" smooth="yes"/>
      <point x="35" y="11"/>
      <point x="42" y="-231"/>
      <point x="47" y="-390" type="curve"/>
      <point x="61" y="-390"/>
      <point x="83" y="-389"/>
      <point x="84" y="-375" type="curve" smooth="yes"/>
      <point x="95" y="-227"/>
      <point x="97" y="-124"/>
      <point x="102" y="-63" type="curve" smooth="yes"/>
      <point x="106" y="-10"/>
      <point x="114" y="0"/>
      <point x="145" y="0" type="curve" smooth="yes"/>
    </contour>
    <contour>
      <point x="330" y="158" type="curve" smooth="yes"/>
      <point x="331" y="96"/>
      <point x="317" y="90"/>
      <point x="280" y="90" type="curve" smooth="yes"/>
      <point x="157" y="90"/>
      <point x="126" y="90"/>
      <point x="126" y="98" type="curve" smooth="yes"/>
      <point x="126" y="125"/>
      <point x="285" y="284"/>
      <point x="307" y="284" type="curve" smooth="yes"/>
      <point x="318" y="284"/>
      <point x="329" y="190"/>
    </contour>
  </outline>
</glyph>
<glyph name="one.small" format="2">
  <advance width="350"/>
  <anchor x="0" y="0" name="digit"/>
  <outline>
    <contour>
      <point x="230" y="469" type="curve"/>
      <point x="195" y="469" type="line"/>
      <point x="160" y="442"/>
      <point x="98" y="425"/>
      <point x="51" y="417" type="curve"/>
      <point x="61" y="389" type="line"/>
      <point x="153" y="391" type="line"/>
      <point x="155" y="334"/>
      <point x="156" y="279"/>
      <point x="156" y="232" type="curve" smooth="yes"/>
      <point x="156" y="170"/>
      <point x="155" y="108"/>
      <point x="153" y="41" type="curve"/>
      <point x="61" y="25" type="line"/>
      <point x="70" y="0" type="line"/>
      <point x="101" y="0"/>
      <point x="159" y="2"/>
      <point x="193" y="2" type="curve" smooth="yes"/>
      <point x="229" y="2"/>
      <point x="282" y="1"/>
      <point x="310" y="0" type="curve"/>
      <point x="318" y="25" type="line"/>
      <point x="230" y="41" type="line"/>
      <point x="228" y="111"/>
      <point x="227" y="177"/>
      <point x="227" y="242" type="curve" smooth="yes"/>
      <point x="227" y="292"/>
      <point x="228" y="351"/>
    </contour>
  </outline>
</glyph>
<glyph name="radical.rtl" format="2">
  <advance width="642"/>
  <outline>
    <contour>
      <point x="341" y="-46" type="line"/>
      <point x="545" y="302" type="line"/>
      <point x="657" y="325" type="line"/>
      <point x="656" y="361" type="line"/>
      <point x="596" y="360"/>
      <point x="550" y="360"/>
      <point x="514" y="360" type="curve" smooth="yes"/>
      <point x="499" y="360"/>
      <point x="486" y="360"/>
      <point x="475" y="360" type="curve"/>
      <point x="302" y="66" type="line"/>
      <point x="71" y="763" type="line"/>
      <point x="41" y="762"/>
      <point x="12" y="761"/>
      <point x="-18" y="761" type="curve" smooth="yes"/>
      <point x="-36" y="761"/>
      <point x="-55" y="761"/>
      <point x="-73" y="762" type="curve"/>
      <point x="-85" y="728" type="line"/>
      <point x="24" y="705" type="line"/>
      <point x="274" y="-46" type="line"/>
    </contour>
  </outline>
</glyph>
<glyph name="seen-ar.medi.flat" format="2">
  <advance width="466"/>
  <anchor x="231" y="-30" name="bottom"/>
  <anchor x="466" y="0" name="entry"/>
  <anchor x="0" y="207" name="exit"/>
  <anchor x="221" y="453" name="top"/>
  <outline>
    <contour>
      <point x="415" y="103"/>
      <point x="416" y="208" type="curve" smooth="yes"/>
      <point x="418" y="315"/>
      <point x="411" y="368"/>
      <point x="400" y="407" type="curve" smooth="yes"/>
      <point x="398" y="415"/>
      <point x="395" y="421"/>
      <point x="383" y="421" type="curve"/>
      <point x="368" y="414"/>
      <point x="345" y="402"/>
      <point x="315" y="383" type="curve"/>
      <point x="330" y="349"/>
      <point x="358" y="279"/>
      <point x="358" y="181" type="curve" smooth="yes"/>
      <point x="358" y="93"/>
      <point x="346" y="90"/>
      <point x="328" y="90" type="curve" smooth="yes"/>
      <point x="282" y="90" type="line" smooth="yes"/>
      <point x="261" y="90"/>
      <point x="261" y="131"/>
      <point x="261" y="208" type="curve" smooth="yes"/>
      <point x="261" y="315"/>
      <point x="253" y="377"/>
      <point x="245" y="407" type="curve" smooth="yes"/>
      <point x="243" y="415"/>
      <point x="240" y="421"/>
      <point x="228" y="421" type="curve"/>
      <point x="213" y="414"/>
      <point x="190" y="402"/>
      <point x="160" y="383" type="curve"/>
      <point x="175" y="349"/>
      <point x="203" y="279"/>
      <point x="203" y="181" type="curve" smooth="yes"/>
      <point x="203" y="93"/>
      <point x="197" y="90"/>
      <point x="184" y="90" type="curve" smooth="yes"/>
      <point x="149" y="90" type="line" smooth="yes"/>
      <point x="117" y="90"/>
      <point x="103" y="104"/>
      <point x="103" y="254" type="curve" smooth="yes"/>
      <point x="103" y="318"/>
      <point x="100" y="376"/>
      <point x="91" y="407" type="curve" smooth="yes"/>
      <point x="89" y="415"/>
      <point x="86" y="421"/>
      <point x="74" y="421" type="curve"/>
      <point x="59" y="414"/>
      <point x="36" y="402"/>
      <point x="6" y="383" type="curve"/>
      <point x="24" y="350"/>
      <point x="38" y="320"/>
      <point x="38" y="306" type="curve" smooth="yes"/>
      <point x="38" y="300"/>
      <point x="36" y="297"/>
      <point x="30" y="297" type="curve" smooth="yes"/>
      <point x="-20" y="297" type="line"/>
      <point x="-20" y="207" type="line"/>
      <point x="27" y="207" type="line" smooth="yes"/>
      <point x="42" y="207"/>
      <point x="43" y="201"/>
      <point x="45" y="158" type="curve" smooth="yes"/>
      <point x="49" y="74"/>
      <point x="59" y="0"/>
      <point x="88" y="0" type="curve" smooth="yes"/>
      <point x="486" y="0" type="line"/>
      <point x="486" y="90" type="line"/>
      <point x="445" y="90" type="line" smooth="yes"/>
      <point x="415" y="90"/>
    </contour>
  </outline>
</glyph>
<glyph name="seven-ar.small" format="2">
  <advance width="350"/>
  <anchor x="0" y="0" name="digit"/>
  <outline>
    <contour>
      <point x="326" y="466" type="curve"/>
      <point x="244" y="312"/>
      <point x="188" y="180"/>
      <point x="164" y="88" type="curve"/>
      <point x="180" y="71" type="line"/>
      <point x="167" y="207"/>
      <point x="124" y="375"/>
      <point x="68" y="469" type="curve"/>
      <point x="45" y="459"/>
      <point x="20" y="431"/>
      <point x="7" y="404" type="curve"/>
      <point x="79" y="302"/>
      <point x="134" y="163"/>
      <point x="169" y="-10" type="curve"/>
      <point x="169" y="-9" type="line"/>
      <point x="169" y="-10" type="line"/>
      <point x="178" y="-10"/>
      <point x="183" y="-6"/>
      <point x="191" y="1" type="curve"/>
      <point x="235" y="178"/>
      <point x="284" y="313"/>
      <point x="345" y="444" type="curve"/>
      <point x="340" y="463"/>
      <point x="332" y="466"/>
    </contour>
  </outline>
</glyph>
<glyph name="three-ar.small" format="2">
  <advance width="350"/>
  <anchor x="0" y="0" name="digit"/>
  <outline>
    <contour>
      <point x="56" y="394" type="line"/>
      <point x="73" y="290"/>
      <point x="109" y="245"/>
      <point x="145" y="245" type="curve" smooth="yes"/>
      <point x="182" y="245"/>
      <point x="214" y="295"/>
      <point x="219" y="379" type="curve" smooth="yes"/>
      <point x="220" y="391"/>
      <point x="222" y="439"/>
      <point x="222" y="453" type="curve"/>
      <point x="209" y="457"/>
      <point x="196" y="457"/>
      <point x="191" y="457" type="curve"/>
      <point x="193" y="375"/>
      <point x="171" y="334"/>
      <point x="142" y="334" type="curve" smooth="yes"/>
      <point x="116" y="334"/>
      <point x="88" y="368"/>
      <point x="69" y="439" type="curve"/>
    </contour>
    <contour>
      <point x="198" y="378" type="line"/>
      <point x="215" y="307"/>
      <point x="246" y="276"/>
      <point x="275" y="276" type="curve" smooth="yes"/>
      <point x="311" y="276"/>
      <point x="341" y="321"/>
      <point x="341" y="396" type="curve" smooth="yes"/>
      <point x="341" y="413"/>
      <point x="339" y="431"/>
      <point x="336" y="451" type="curve"/>
      <point x="326" y="458"/>
      <point x="319" y="460"/>
      <point x="310" y="460" type="curve"/>
      <point x="311" y="451"/>
      <point x="312" y="440"/>
      <point x="312" y="431" type="curve" smooth="yes"/>
      <point x="312" y="385"/>
      <point x="293" y="362"/>
      <point x="275" y="362" type="curve" smooth="yes"/>
      <point x="252" y="362"/>
      <point x="228" y="392"/>
      <point x="222" y="453" type="curve"/>
    </contour>
    <contour>
      <point x="66" y="-10" type="curve"/>
      <point x="79" y="-8"/>
      <point x="85" y="-4"/>
      <point x="92" y="9" type="curve"/>
      <point x="98" y="73"/>
      <point x="103" y="142"/>
      <point x="103" y="209" type="curve" smooth="yes"/>
      <point x="103" y="298"/>
      <point x="90" y="365"/>
      <point x="69" y="439" type="curve"/>
      <point x="50" y="439"/>
      <point x="29" y="424"/>
      <point x="9" y="402" type="curve"/>
      <point x="51" y="283"/>
      <point x="67" y="178"/>
      <point x="67" y="40" type="curve" smooth="yes"/>
      <point x="67" y="23"/>
      <point x="66" y="7"/>
    </contour>
  </outline>
</glyph>
<glyph name="three.small" format="2">
  <advance width="350"/>
  <anchor x="0" y="0" name="digit"/>
  <outline>
    <contour>
      <point x="194" y="301" type="curve"/>
      <point x="225" y="333"/>
      <point x="255" y="366"/>
      <point x="296" y="409" type="curve"/>
      <point x="282" y="459" type="line"/>
      <point x="246" y="458"/>
      <point x="202" y="457"/>
      <point x="159" y="457" type="curve" smooth="yes"/>
      <point x="111" y="457"/>
      <point x="70" y="458"/>
      <point x="40" y="459" type="curve"/>
      <point x="40" y="420"/>
      <point x="39" y="370"/>
      <point x="35" y="326" type="curve"/>
      <point x="64" y="326" type="line"/>
      <point x="72" y="348"/>
      <point x="82" y="375"/>
      <point x="89" y="393" type="curve"/>
      <point x="108" y="394"/>
      <point x="138" y="395"/>
      <point x="155" y="395" type="curve" smooth="yes"/>
      <point x="167" y="395"/>
      <point x="199" y="394"/>
      <point x="225" y="393" type="curve"/>
      <point x="186" y="342"/>
      <point x="165" y="318"/>
      <point x="114" y="270" type="curve"/>
      <point x="119" y="247" type="line"/>
      <point x="207" y="247"/>
      <point x="250" y="190"/>
      <point x="250" y="135" type="curve" smooth="yes"/>
      <point x="250" y="86"/>
      <point x="215" y="39"/>
      <point x="147" y="39" type="curve" smooth="yes"/>
      <point x="112" y="39"/>
      <point x="73" y="49"/>
      <point x="36" y="74" type="curve"/>
      <point x="23" y="47" type="line"/>
      <point x="65" y="13"/>
      <point x="115" y="-4"/>
      <point x="162" y="-4" type="curve" smooth="yes"/>
      <point x="270" y="-4"/>
      <point x="328" y="76"/>
      <point x="328" y="154" type="curve" smooth="yes"/>
      <point x="328" y="222"/>
      <point x="285" y="288"/>
    </contour>
  </outline>
</glyph>
